<svg xmlns="http://www.w3.org/2000/svg" width="350" height="25.301" viewBox="0 0 350 25.301">
  <g id="ICONES" transform="translate(-335 -4791)">
    <g id="BOLETO" transform="translate(-74.697 1561)">
      <path id="BOLETO-2" data-name="BOLETO" d="M549,25V0h1.231V25Zm1.836-.018V0h.625V24.982Zm1.853,0V0h.606V24.982Zm3.067,0V0h.606V24.982Zm2.462,0V0h1.217V24.982Zm3.067,0V0h.606V24.982Zm1.231,0V0h.606V24.982Zm1.231,0V0h.606V24.982Zm2.438,0V0h1.231V24.982Zm3.067,0V0h1.231V24.982Zm2.462,0V0h1.231V24.982Zm2.462,0V0h1.235V24.982Zm1.837,0V0h1.231V24.982Zm3.087,0V0h1.837V24.982Zm2.438,0V0h.625V24.982Zm1.231.018V0H584V25Z" transform="translate(175.697 3230)"/>
    </g>
    <g id="VISA" transform="translate(-59 1561)">
      <path id="VISA-2" data-name="VISA" d="M367.235,0h-36.47A1.8,1.8,0,0,0,329,1.839V23.161A1.8,1.8,0,0,0,330.765,25h36.47A1.8,1.8,0,0,0,369,23.161V1.839A1.8,1.8,0,0,0,367.235,0Z" transform="translate(335 3230)" fill="#25378d"/>
      <path id="VISA-3" data-name="VISA" d="M346.939,17.214l1.229-7.948h1.966l-1.229,7.948Zm9.1-7.753a4.688,4.688,0,0,0-1.765-.334c-1.942,0-3.312,1.079-3.323,2.623-.012,1.142.976,1.779,1.722,2.159.766.39,1.024.644,1.021.986-.005.532-.612.777-1.176.777a3.812,3.812,0,0,1-1.853-.416l-.252-.127-.275,1.778a5.712,5.712,0,0,0,2.19.424c2.066,0,3.408-1.066,3.424-2.715.007-.906-.517-1.591-1.651-2.16-.688-.368-1.109-.612-1.1-.986,0-.33.353-.683,1.126-.683a3.331,3.331,0,0,1,1.471.305l.177.092.265-1.724Zm2.619,4.935c.162-.46.783-2.222.783-2.222-.012.022.162-.46.265-.758l.132.686s.378,1.9.455,2.3Zm2.424-5.122H359.56a.937.937,0,0,0-.625.142,1,1,0,0,0-.405.516l-2.92,7.283h2.065s.337-.979.414-1.2h2.518c.059.276.24,1.2.24,1.2h1.824l-1.589-7.941Zm-15.79,0-1.924,5.419-.207-1.1a6.038,6.038,0,0,0-2.723-3.331l1.76,6.95h2.082l3.1-7.933h-2.085" transform="translate(333.657 3229.264)" fill="#fffffe" fill-rule="evenodd"/>
      <path id="VISA-4" data-name="VISA" d="M341.306,9.28h-3.17l-.026.165A6.492,6.492,0,0,1,341,10.9a6.872,6.872,0,0,1,1.887,2.7L342.2,9.951a.864.864,0,0,0-.323-.513.8.8,0,0,0-.569-.158" transform="translate(333.93 3229.252)" fill="#ffa100" fill-rule="evenodd"/>
    </g>
    <g id="MASTERCARD" transform="translate(-49 1561)">
      <path id="MASTERCARD-2" data-name="MASTERCARD" d="M312.235,0h-36.47A1.8,1.8,0,0,0,274,1.839V23.161A1.8,1.8,0,0,0,275.765,25h36.47A1.8,1.8,0,0,0,314,23.161V1.839A1.8,1.8,0,0,0,312.235,0Z" transform="translate(335 3230)" fill="#f2f2f2"/>
      <path id="MASTERCARD-3" data-name="MASTERCARD" d="M297.361,13.1a8.372,8.372,0,0,1-1.316,4.517,7.884,7.884,0,0,1-3.5,2.994,7.516,7.516,0,0,1-4.51.462,7.716,7.716,0,0,1-4-2.225,8.237,8.237,0,0,1-2.136-4.163,8.45,8.45,0,0,1,.444-4.7,8.07,8.07,0,0,1,2.875-3.649,7.535,7.535,0,0,1,7.324-.751,7.789,7.789,0,0,1,2.532,1.763,8.159,8.159,0,0,1,1.692,2.638,8.435,8.435,0,0,1,.594,3.112" transform="translate(334.09 3229.599)" fill="#fa002a" fill-rule="evenodd"/>
      <path id="MASTERCARD-4" data-name="MASTERCARD" d="M301.454,4.972a7.521,7.521,0,0,0-3.335.776,7.833,7.833,0,0,0-2.694,2.19H297a8.427,8.427,0,0,1,.595.861h-2.768a8.372,8.372,0,0,0-.449.861h3.667a8.457,8.457,0,0,1,.33.861h-4.325a8.229,8.229,0,0,0-.227.86h4.781a8.522,8.522,0,0,1-.227,4.305h-4.325a8.481,8.481,0,0,0,.33.861h3.667a8.188,8.188,0,0,1-.45.861h-2.773a8.454,8.454,0,0,0,.595.861H297a7.976,7.976,0,0,1-.788.861,7.711,7.711,0,0,0,3.3,1.848,7.5,7.5,0,0,0,3.746.034,7.7,7.7,0,0,0,3.33-1.788,8.149,8.149,0,0,0,2.147-3.2,8.452,8.452,0,0,0,.47-3.871A8.331,8.331,0,0,0,307.888,8.5a7.914,7.914,0,0,0-2.8-2.594,7.554,7.554,0,0,0-3.636-.937" transform="translate(332.672 3229.599)" fill="#ff9200" fill-rule="evenodd"/>
      <path id="MASTERCARD-5" data-name="MASTERCARD" d="M287.8,14.533a1.409,1.409,0,0,0-.189-.014c-.48,0-.723.172-.723.511a.325.325,0,0,0,.013.13.306.306,0,0,0,.064.113.294.294,0,0,0,.1.075.284.284,0,0,0,.124.024C287.534,15.37,287.784,15.029,287.8,14.533Zm.618,1.494h-.7l.016-.348a1.062,1.062,0,0,1-.4.315,1.02,1.02,0,0,1-.491.091.769.769,0,0,1-.319-.077.8.8,0,0,1-.262-.2.824.824,0,0,1-.161-.3.852.852,0,0,1-.032-.34c0-.816.548-1.293,1.488-1.293a2.943,2.943,0,0,1,.346.025.858.858,0,0,0,.033-.217c0-.222-.147-.306-.544-.306a2.723,2.723,0,0,0-.9.152l.118-.755a3.217,3.217,0,0,1,1.013-.177c.728,0,1.114.34,1.112.984a4.292,4.292,0,0,1-.068.664c-.073.485-.232,1.528-.252,1.781Zm-2.7,0h-.848l.486-3.17-1.085,3.17h-.578l-.072-3.152-.509,3.152h-.794l.663-4.124h1.216l.073,2.308.743-2.308h1.355l-.655,4.125Zm15.431-1.494a1.379,1.379,0,0,0-.189-.014c-.48,0-.723.172-.723.511a.326.326,0,0,0,.013.13.306.306,0,0,0,.064.113.294.294,0,0,0,.1.075.284.284,0,0,0,.124.024c.349,0,.6-.343.613-.839Zm.618,1.494h-.7l.016-.348a1.062,1.062,0,0,1-.4.315,1.019,1.019,0,0,1-.491.091.77.77,0,0,1-.32-.077.8.8,0,0,1-.262-.2.824.824,0,0,1-.161-.3.851.851,0,0,1-.032-.34c0-.816.548-1.293,1.488-1.293a2.944,2.944,0,0,1,.346.025.858.858,0,0,0,.033-.217c0-.222-.147-.306-.544-.306a2.73,2.73,0,0,0-.9.152c.01-.056.119-.754.119-.754a3.222,3.222,0,0,1,1.013-.177c.728,0,1.114.34,1.112.984a4.523,4.523,0,0,1-.068.664c-.073.485-.232,1.528-.252,1.781Zm-9.583-.051a1.853,1.853,0,0,1-.609.109.6.6,0,0,1-.275-.038.612.612,0,0,1-.231-.16.641.641,0,0,1-.141-.249.664.664,0,0,1-.022-.288,7.8,7.8,0,0,1,.116-.895c.049-.313.368-2.289.368-2.289h.842l-.1.508h.508l-.116.806h-.51c-.1.637-.237,1.432-.238,1.537,0,.174.088.248.289.248a.654.654,0,0,0,.229-.031l-.112.743Zm2.582-.026a2.756,2.756,0,0,1-.864.137,1.231,1.231,0,0,1-.578-.06,1.27,1.27,0,0,1-.493-.32,1.339,1.339,0,0,1-.306-.514,1.378,1.378,0,0,1-.057-.6c0-1.146.626-1.99,1.475-1.99a1.034,1.034,0,0,1,.453.073,1.066,1.066,0,0,1,.383.263,1.119,1.119,0,0,1,.244.4,1.164,1.164,0,0,1,.059.473,3.73,3.73,0,0,1-.1.827h-1.677c-.056.486.243.69.733.69a1.934,1.934,0,0,0,.876-.211Zm-.474-1.988c0-.07.088-.6-.392-.6-.265,0-.46.213-.538.6Zm-5.367-.227a1.007,1.007,0,0,0,.176.578.943.943,0,0,0,.469.359c.343.168.4.218.4.368,0,.209-.152.3-.486.3a2.315,2.315,0,0,1-.76-.132l-.116.775a3.837,3.837,0,0,0,.883.1c.893,0,1.306-.355,1.306-1.121a.947.947,0,0,0-.146-.573.887.887,0,0,0-.451-.362c-.353-.17-.4-.209-.4-.368,0-.184.141-.276.415-.276a4.51,4.51,0,0,1,.609.051l.12-.778a5.486,5.486,0,0,0-.745-.065c-.948,0-1.277.515-1.274,1.135Zm9.964-1.053a1.563,1.563,0,0,1,.757.222l.139-.9a2.429,2.429,0,0,0-.931-.35,1.64,1.64,0,0,0-.785.211,1.715,1.715,0,0,0-.6.567c-.492-.17-.695.174-.943.515l-.22.053a1.8,1.8,0,0,0,.027-.337h-.778c-.107,1.039-.295,2.09-.441,3.126l-.039.225h.848q.15-.99.265-1.986l.32-.184c.048-.184.2-.247.5-.24a3.9,3.9,0,0,0-.061.688c0,1.1.569,1.781,1.482,1.781a2.552,2.552,0,0,0,.748-.12l.149-.94a1.6,1.6,0,0,1-.72.211c-.492,0-.794-.379-.794-1,0-.908.441-1.545,1.076-1.545Zm7.172-.787-.189,1.2a1.081,1.081,0,0,0-.341-.377,1.032,1.032,0,0,0-.468-.174,1.287,1.287,0,0,0-.646.264,1.363,1.363,0,0,0-.426.57,6.686,6.686,0,0,1-.722-.208h0c.021-.167.034-.336.038-.5h-.778c-.107,1.039-.295,2.09-.441,3.126l-.04.225h.849c.115-.773.2-1.417.265-1.931.289-.276.435-.511.728-.495a2.975,2.975,0,0,0-.207,1.089c0,.838.407,1.392,1.024,1.392a.965.965,0,0,0,.431-.092,1.006,1.006,0,0,0,.35-.276l-.04.312h.8l.645-4.124h-.835ZM305,15.246c-.288,0-.434-.223-.434-.662,0-.659.272-1.127.657-1.127.291,0,.449.231.449.656.005.673-.273,1.139-.667,1.139Z" transform="translate(334.024 3229.06)" fill="#006" fill-rule="evenodd"/>
      <path id="MASTERCARD-6" data-name="MASTERCARD" d="M285.989,15.772h-.848l.486-3.17-1.084,3.171h-.578l-.072-3.152-.51,3.152h-.794l.663-4.125h1.218L284.5,14.2l.823-2.552h1.317l-.656,4.124Zm2.086-1.493a1.35,1.35,0,0,0-.189-.014c-.48,0-.723.172-.723.511a.326.326,0,0,0,.013.13.306.306,0,0,0,.064.113.3.3,0,0,0,.1.075.284.284,0,0,0,.124.024c.343,0,.593-.343.607-.839Zm.618,1.494h-.7l.016-.348a1.06,1.06,0,0,1-.4.315,1.023,1.023,0,0,1-.492.091.77.77,0,0,1-.319-.077.8.8,0,0,1-.262-.2.825.825,0,0,1-.161-.3.851.851,0,0,1-.032-.34c0-.816.548-1.293,1.488-1.293a2.759,2.759,0,0,1,.346.025.859.859,0,0,0,.032-.217c0-.222-.147-.305-.544-.305a2.713,2.713,0,0,0-.9.15l.116-.754a3.249,3.249,0,0,1,1.014-.177c.728,0,1.114.341,1.112.984a4.413,4.413,0,0,1-.068.665c-.073.485-.232,1.528-.252,1.781ZM300.06,11.76l-.139.9a1.569,1.569,0,0,0-.756-.222c-.632,0-1.077.637-1.077,1.545,0,.625.3,1,.794,1a1.59,1.59,0,0,0,.719-.211l-.149.94a2.53,2.53,0,0,1-.748.121c-.913,0-1.481-.683-1.481-1.781,0-1.471.785-2.505,1.909-2.505a2.845,2.845,0,0,1,.931.214Zm1.369,2.519a1.346,1.346,0,0,0-.2-.01c-.48,0-.723.172-.723.511a.326.326,0,0,0,.013.13.306.306,0,0,0,.064.113.3.3,0,0,0,.1.075.284.284,0,0,0,.124.024c.344,0,.594-.342.608-.838Zm.618,1.494h-.706l.016-.348a1.06,1.06,0,0,1-.4.315,1.023,1.023,0,0,1-.492.091.77.77,0,0,1-.32-.077.8.8,0,0,1-.262-.2.824.824,0,0,1-.161-.3.851.851,0,0,1-.032-.34c0-.816.547-1.293,1.488-1.293a2.745,2.745,0,0,1,.345.025.856.856,0,0,0,.034-.217c0-.222-.147-.305-.544-.305a2.713,2.713,0,0,0-.9.15l.116-.754a3.249,3.249,0,0,1,1.014-.177c.728,0,1.114.341,1.112.984a4.3,4.3,0,0,1-.068.665c-.075.489-.234,1.532-.254,1.784Zm-9.585-.051a1.864,1.864,0,0,1-.608.108.592.592,0,0,1-.275-.038.614.614,0,0,1-.232-.16.651.651,0,0,1-.141-.25.664.664,0,0,1-.022-.289,8.017,8.017,0,0,1,.117-.895c.048-.314.367-2.289.367-2.289h.842l-.1.507h.432l-.116.806h-.433c-.1.638-.237,1.433-.239,1.538,0,.174.088.248.29.248a.658.658,0,0,0,.229-.031l-.112.742Zm2.582-.026a2.8,2.8,0,0,1-.864.136,1.232,1.232,0,0,1-.578-.06,1.27,1.27,0,0,1-.493-.32,1.339,1.339,0,0,1-.306-.514,1.379,1.379,0,0,1-.057-.6c0-1.146.626-1.991,1.475-1.991a1.04,1.04,0,0,1,.454.073,1.082,1.082,0,0,1,.383.263,1.133,1.133,0,0,1,.243.405,1.166,1.166,0,0,1,.059.474,3.785,3.785,0,0,1-.1.827h-1.677c-.056.486.243.69.732.69a1.926,1.926,0,0,0,.876-.211l-.14.835Zm-.474-1.989c0-.07.088-.6-.392-.6-.265,0-.46.214-.538.6ZM289.2,13.48a1.012,1.012,0,0,0,.177.577.941.941,0,0,0,.469.359c.343.168.4.218.4.368,0,.209-.151.3-.486.3a2.315,2.315,0,0,1-.76-.132l-.116.775a3.837,3.837,0,0,0,.883.1c.894,0,1.307-.355,1.307-1.122a.952.952,0,0,0-.146-.573.888.888,0,0,0-.451-.361c-.353-.17-.4-.209-.4-.368,0-.184.141-.276.415-.276a4.513,4.513,0,0,1,.609.051l.12-.778a5.534,5.534,0,0,0-.745-.067c-.949,0-1.277.517-1.274,1.135Zm17.326,2.292h-.8l.04-.308a1.009,1.009,0,0,1-.351.276.966.966,0,0,1-.431.092c-.618,0-1.023-.552-1.023-1.392,0-1.117.632-2.057,1.379-2.057a.923.923,0,0,1,.461.122.966.966,0,0,1,.348.338l.188-1.2h.836l-.643,4.125ZM305.278,15c.4,0,.672-.465.672-1.129,0-.427-.158-.658-.448-.658-.385,0-.658.468-.658,1.127,0,.439.146.661.433.661Zm-2.471-2.574c-.107,1.038-.295,2.089-.441,3.126l-.039.225h.848c.3-2.05.376-2.45.851-2.4a3.389,3.389,0,0,1,.321-.974c-.353-.077-.552.131-.813.529a3.166,3.166,0,0,0,.051-.508h-.778Zm-6.972,0c-.107,1.038-.3,2.089-.441,3.126l-.039.225h.848c.3-2.05.376-2.45.851-2.4a3.416,3.416,0,0,1,.322-.974c-.353-.077-.552.131-.813.529a3.17,3.17,0,0,0,.051-.508h-.778" transform="translate(333.992 3229.069)" fill="#fff" fill-rule="evenodd"/>
    </g>
    <g id="HIPERCARD" transform="translate(-39 1561)">
      <path id="HIPERCARD-2" data-name="HIPERCARD" d="M257.235,0h-36.47A1.8,1.8,0,0,0,219,1.839V23.161A1.8,1.8,0,0,0,220.765,25h36.47A1.8,1.8,0,0,0,259,23.161V1.839A1.8,1.8,0,0,0,257.235,0Z" transform="translate(335 3230)" fill="#c40009"/>
      <path id="HIPERCARD-3" data-name="HIPERCARD" d="M246.674,14.9c-.414.421-1.571.541-1.454-.465.1-.836.971-1.011,1.921-.892a2.572,2.572,0,0,1-.467,1.357Zm-1.3-3.259c-.042.231-.1.439-.15.659.474-.123,1.943-.5,2.086.155a1.15,1.15,0,0,1-.088.621c-1.333-.131-2.417.1-2.7,1.087a1.271,1.271,0,0,0-.045.826,1.221,1.221,0,0,0,.47.667,1.712,1.712,0,0,0,1.131.061,1.776,1.776,0,0,0,.936-.662,2.57,2.57,0,0,0-.056.621h.689a11.676,11.676,0,0,1,.206-1.863,8.1,8.1,0,0,0,.226-1.513c-.062-1.065-1.759-.688-2.7-.659Zm6.911,3.585c-.543.012-.813-.336-.82-.912-.024-1.011.4-2.13,1.265-2.231a2.007,2.007,0,0,1,.985.155c-.271,1.134-.177,2.959-1.43,2.987ZM254.067,9.9q-.106.94-.28,1.8c-1.964-.644-3.172.858-3.147,2.716a1.519,1.519,0,0,0,.281.97,1.75,1.75,0,0,0,1.973.175,1.386,1.386,0,0,0,.279-.291c.05-.068.132-.245.152-.194a4.053,4.053,0,0,0-.079.6h.727a54.268,54.268,0,0,1,.9-5.78Zm-20.505,5.023c-.427.473-1.478.465-1.561-.33a4.065,4.065,0,0,1,.15-1.066c.058-.362.1-.71.165-1.028.423-.537,1.663-.6,1.788.291a3.046,3.046,0,0,1-.544,2.134Zm.636-3.278a2.029,2.029,0,0,0-.971-.053,2.065,2.065,0,0,0-.889.405c0,.013-.013.015-.021.016a.094.094,0,0,1,.021-.016h0c0-.13.046-.22.049-.349H231.7c-.291,1.989-.628,3.924-.988,5.839h.8c.117-.746.19-1.533.351-2.23.181.735,1.376.594,1.879.311,1.041-.586,1.846-3.372.452-3.918Zm3.8,1.4h-1.881a1.165,1.165,0,0,1,.362-.683,1.083,1.083,0,0,1,.7-.287c.583-.02,1,.221.824.973Zm-.762-1.471a2.062,2.062,0,0,0-1.419.6,3.454,3.454,0,0,0-.665,2.444c.141,1.344,1.747,1.3,3.034.97.019-.236.072-.438.11-.659a2.462,2.462,0,0,1-1.993.136c-.412-.27-.412-.956-.278-1.552.862-.028,1.758-.023,2.627,0a3.021,3.021,0,0,0,.071-1.3c-.18-.551-.826-.693-1.485-.641Zm-7.042.077c-.02,0-.021.03-.019.058-.177,1.374-.416,2.684-.671,3.976h.8c.193-1.384.416-2.738.689-4.035Zm20.893.019a1.175,1.175,0,0,0-.877,0,1.239,1.239,0,0,0-.647.616c.064-.19.069-.445.126-.644h-.707c-.188,1.385-.421,2.73-.686,4.035h.817a9.273,9.273,0,0,1,.186-1.455c.177-1.12.425-2.348,1.677-1.978.045-.186.06-.4.112-.578Zm-8.993,3.064a2.057,2.057,0,0,1-.073-.776,2.78,2.78,0,0,1,.538-1.552,1.914,1.914,0,0,1,.936-.314,1.894,1.894,0,0,1,.964.2c.018-.231.064-.437.1-.659a2.919,2.919,0,0,0-1.383-.061,2.975,2.975,0,0,0-1.265.585,3.372,3.372,0,0,0-.613,1.305,3.445,3.445,0,0,0-.017,1.453c.286.983,1.578,1.036,2.625.66.047-.2.067-.417.109-.621-.572.309-1.663.47-1.918-.213Zm-.441-3.084a1.183,1.183,0,0,0-.89.03,1.254,1.254,0,0,0-.638.648c.056-.211.084-.46.13-.678h-.707c-.177,1.4-.427,2.709-.671,4.035h.8a16.975,16.975,0,0,1,.407-2.6,1.2,1.2,0,0,1,.2-.444,1.133,1.133,0,0,1,.357-.319,1.084,1.084,0,0,1,.919-.071,6.026,6.026,0,0,1,.09-.6ZM228.74,10.014c-.113.773-.24,1.532-.368,2.289-.829.009-1.677.042-2.477-.019.154-.741.257-1.527.407-2.269h-.9c-.315,1.891-.61,3.812-.964,5.664h.913c.141-.951.276-1.909.462-2.812a21.431,21.431,0,0,1,2.462.019c-.157.939-.343,1.843-.486,2.793h.913c.295-1.919.6-3.822.971-5.664h-.935Zm2.276.853c.157-.115.362-.636.127-.853a.564.564,0,0,0-.362-.06.577.577,0,0,0-.326.176c-.1.143-.193.576-.038.735s.492.074.6,0Z" transform="translate(334.361 3229.202)" fill="#fefefe" fill-rule="evenodd"/>
    </g>
    <g id="ELO" transform="translate(-30 1561)">
      <path id="ELO-2" data-name="ELO" d="M203.222,0H166.778A1.816,1.816,0,0,0,165,1.852v21.3A1.816,1.816,0,0,0,166.778,25h36.444A1.816,1.816,0,0,0,205,23.148V1.852A1.816,1.816,0,0,0,203.222,0Z" transform="translate(335 3230)" fill="#1d1c1b"/>
      <path id="ELO-3" data-name="ELO" d="M178.592,17.382a3.989,3.989,0,0,1-1.316.9,3.825,3.825,0,0,1-3.613-.35L172.171,20.4a6.576,6.576,0,0,0,4.342,1.053,6.679,6.679,0,0,0,4.033-1.979Zm-6.782-2.542a4.311,4.311,0,0,1,.524-2.556,4.059,4.059,0,0,1,1.883-1.728,3.853,3.853,0,0,1,2.5-.22,3.978,3.978,0,0,1,2.134,1.374ZM175.9,7.313a6.6,6.6,0,0,0-3.518.956,6.96,6.96,0,0,0-2.544,2.707,7.343,7.343,0,0,0,.256,7.3l12.324-5.489a7.134,7.134,0,0,0-2.358-3.9,6.641,6.641,0,0,0-4.163-1.566Zm10.383-3.194V17.806l2.278.984-1.078,2.7-2.255-.977a2.585,2.585,0,0,1-1.111-.972,3.162,3.162,0,0,1-.436-1.7V4.119Z" transform="translate(334.557 3229.695)" fill="#fefefe" fill-rule="evenodd"/>
      <path id="ELO-4" data-name="ELO" d="M197.579,10.7a3.859,3.859,0,0,1,3.273.343,4.053,4.053,0,0,1,1.247,1.176,4.243,4.243,0,0,1,.673,1.606l2.746-.583a7.238,7.238,0,0,0-1.148-2.726,6.908,6.908,0,0,0-2.12-2,6.622,6.622,0,0,0-2.719-.915,6.555,6.555,0,0,0-2.84.327Z" transform="translate(331.479 3229.439)" fill="#ffc400" fill-rule="evenodd"/>
      <path id="ELO-5" data-name="ELO" d="M193.758,20.11l1.856-2.186a4.161,4.161,0,0,1-1-1.411,4.333,4.333,0,0,1,0-3.426,4.161,4.161,0,0,1,1-1.411l-1.857-2.185a7.076,7.076,0,0,0-1.7,2.4,7.354,7.354,0,0,0,0,5.823,7.076,7.076,0,0,0,1.7,2.4" transform="translate(332.06 3229.297)" fill="#00aaea" fill-rule="evenodd"/>
      <path id="ELO-6" data-name="ELO" d="M202.772,16.128a4.273,4.273,0,0,1-.676,1.6,4.082,4.082,0,0,1-1.248,1.173,3.9,3.9,0,0,1-1.6.537,3.859,3.859,0,0,1-1.67-.193l-.889,2.769a6.556,6.556,0,0,0,2.839.329,6.622,6.622,0,0,0,2.719-.913,6.913,6.913,0,0,0,2.121-1.994,7.232,7.232,0,0,0,1.15-2.724l-2.747-.585Z" transform="translate(331.48 3228.805)" fill="red" fill-rule="evenodd"/>
    </g>
    <g id="DINERS_CLUB" data-name="DINERS CLUB" transform="translate(-20 1561)">
      <path id="DINERS_CLUB-2" data-name="DINERS CLUB" d="M148.235,0h-36.47A1.8,1.8,0,0,0,110,1.839V23.161A1.8,1.8,0,0,0,111.765,25h36.47A1.8,1.8,0,0,0,150,23.161V1.839A1.8,1.8,0,0,0,148.235,0Z" transform="translate(335 3230)" fill="#f2f2f2"/>
      <path id="DINERS_CLUB-3" data-name="DINERS CLUB" d="M114.73,13.5a4.318,4.318,0,0,1,.68-2.331,4.062,4.062,0,0,1,1.808-1.545,3.878,3.878,0,0,1,2.327-.238,3.981,3.981,0,0,1,2.062,1.149,4.256,4.256,0,0,1,1.1,2.149,4.363,4.363,0,0,1-.23,2.424A4.164,4.164,0,0,1,120.995,17a3.906,3.906,0,0,1-5.086-.524A4.286,4.286,0,0,1,114.73,13.5" transform="translate(334.445 3229.249)" fill="#d7d7d7" fill-rule="evenodd"/>
      <path id="DINERS_CLUB-4" data-name="DINERS CLUB" d="M127.361,13.171c0,.352.242.393.456.393a1.182,1.182,0,0,0,.516-.1,1.216,1.216,0,0,0,.429-.313,1.277,1.277,0,0,0,.264-.472,1.318,1.318,0,0,0,.05-.544,1.417,1.417,0,0,0-.077-.569,1.378,1.378,0,0,0-.293-.487,1.315,1.315,0,0,0-.459-.319,1.272,1.272,0,0,0-.545-.1c-.177,0-.265.013-.342.018Zm-.43-2.144c0-.411-.206-.384-.4-.389V10.52c.171.008.346.008.518.008s.434-.008.759-.008a1.537,1.537,0,0,1,.645.071,1.577,1.577,0,0,1,.565.333,1.652,1.652,0,0,1,.392.539,1.734,1.734,0,0,1,.154.657,1.6,1.6,0,0,1-1.808,1.59c-.223,0-.431-.009-.636-.009s-.391,0-.588.009v-.12c.265-.028.39-.037.4-.348Zm3.252-.109a.212.212,0,0,1-.153-.066.232.232,0,0,1,0-.317.21.21,0,0,1,.3,0,.227.227,0,0,1,.064.156.233.233,0,0,1-.063.161A.216.216,0,0,1,130.184,10.918Zm-.47,2.674h.08c.124,0,.211,0,.211-.152V12.2c0-.2-.065-.229-.229-.32v-.075c.207-.064.452-.151.47-.165a.151.151,0,0,1,.079-.022c.022,0,.031.028.031.063V13.44c0,.152.1.152.219.152h.075v.12c-.149,0-.3-.009-.461-.009s-.316,0-.478.009v-.12Zm1.356-1.362c0-.169-.049-.214-.254-.3v-.092a5.919,5.919,0,0,0,.579-.219c.013,0,.026.009.026.045v.3a1.261,1.261,0,0,1,.76-.343c.373,0,.5.283.5.644V13.44c0,.152.1.152.219.152h.079v.12c-.154,0-.307-.009-.465-.009s-.316,0-.474.009v-.12h.079c.123,0,.21,0,.21-.152V12.257a.357.357,0,0,0-.4-.389,1.146,1.146,0,0,0-.509.22V13.44c0,.152.1.152.221.152h.079v.12c-.154,0-.308-.009-.466-.009s-.316,0-.474.009v-.12h.079c.123,0,.21,0,.21-.152V12.23Zm3.025.074c.109,0,.122-.059.122-.114a.4.4,0,0,0-.019-.161.392.392,0,0,0-.08-.139.376.376,0,0,0-.129-.092.357.357,0,0,0-.153-.03c-.265,0-.452.206-.5.535Zm-.777.147a1.107,1.107,0,0,0,0,.265.785.785,0,0,0,.173.527.726.726,0,0,0,.471.264.816.816,0,0,0,.327-.09.854.854,0,0,0,.266-.216l.062.064a1.054,1.054,0,0,1-.345.362,1,1,0,0,1-.467.155.862.862,0,0,1-.342-.09.893.893,0,0,1-.281-.222.94.94,0,0,1-.175-.319.962.962,0,0,1-.041-.365c0-.9.579-1.161.883-1.161a.671.671,0,0,1,.279.04.7.7,0,0,1,.241.152.742.742,0,0,1,.163.239.757.757,0,0,1,.059.286.645.645,0,0,1,0,.083l-.04.028Zm1.378,1.143h.119c.123,0,.21,0,.21-.152V12.154c0-.142-.161-.169-.228-.206v-.065c.32-.142.5-.261.536-.261s.039.013.039.059v.411h.01c.109-.178.294-.471.561-.471a.233.233,0,0,1,.094.015.25.25,0,0,1,.08.051.255.255,0,0,1,.076.175.223.223,0,0,1-.012.087.22.22,0,0,1-.043.075.217.217,0,0,1-.068.052.206.206,0,0,1-.082.02c-.137,0-.137-.11-.289-.11a.364.364,0,0,0-.228.128.4.4,0,0,0-.093.252V13.44c0,.152.088.152.21.152h.245v.12c-.241,0-.425-.009-.618-.009s-.365,0-.522.009v-.12Zm1.686-.518a.613.613,0,0,0,.175.389.568.568,0,0,0,.379.169.3.3,0,0,0,.135-.007.3.3,0,0,0,.119-.067.314.314,0,0,0,.081-.113.337.337,0,0,0,.026-.138c0-.539-.956-.368-.956-1.1a.662.662,0,0,1,.064-.247.634.634,0,0,1,.154-.2.593.593,0,0,1,.217-.119.584.584,0,0,1,.245-.019,1.118,1.118,0,0,1,.5.132l.031.466h-.1a.477.477,0,0,0-.147-.331.454.454,0,0,0-.154-.1.437.437,0,0,0-.177-.026.3.3,0,0,0-.124.012.3.3,0,0,0-.109.062.322.322,0,0,0-.077.1.34.34,0,0,0-.032.125c0,.535,1.018.368,1.018,1.089,0,.3-.232.621-.755.621a1.123,1.123,0,0,1-.536-.155l-.049-.526.079-.023Zm5.229-1.73H141.5a.877.877,0,0,0-.319-.575.809.809,0,0,0-.616-.172,1.206,1.206,0,0,0-.508.116,1.256,1.256,0,0,0-.419.322,1.318,1.318,0,0,0-.258.472,1.359,1.359,0,0,0-.05.54,1.531,1.531,0,0,0,.342,1.073,1.414,1.414,0,0,0,.966.514.873.873,0,0,0,.583-.225.941.941,0,0,0,.3-.566l.1.028-.1.667a2.383,2.383,0,0,1-.971.242,1.5,1.5,0,0,1-.655-.094,1.557,1.557,0,0,1-.559-.368,1.64,1.64,0,0,1-.363-.576,1.767,1.767,0,0,1,.413-1.842,1.577,1.577,0,0,1,1.149-.449,3.06,3.06,0,0,1,1.035.243l.044.654Zm.159,2.247h.084c.123,0,.211,0,.211-.152V10.9c0-.3-.066-.307-.233-.357v-.074a2.7,2.7,0,0,0,.452-.2.466.466,0,0,1,.1-.051c.026,0,.035.028.035.064V13.44c0,.152.1.152.22.152h.075v.12c-.148,0-.3-.009-.461-.009s-.315,0-.478.009v-.12Zm2.819-.132c0,.083.048.086.123.086h.177v.092a4.359,4.359,0,0,0-.633.142l-.027-.012V13.4a1.165,1.165,0,0,1-.778.383.456.456,0,0,1-.2-.039.479.479,0,0,1-.163-.119.493.493,0,0,1-.1-.179.512.512,0,0,1-.022-.207V12.066c0-.12-.018-.234-.265-.256v-.086c.158-.006.508-.032.566-.032s.049.032.049.132V13c0,.137,0,.53.381.53a.968.968,0,0,0,.53-.276V12.021c0-.092-.211-.141-.368-.184v-.083c.395-.028.641-.063.685-.063s.035.032.035.082V13.46Zm.864-.265a.5.5,0,0,0,.139.325.463.463,0,0,0,.313.141c.47,0,.667-.48.667-.887a.9.9,0,0,0-.187-.593.829.829,0,0,0-.519-.311.666.666,0,0,0-.417.215Zm0-1.244a1.1,1.1,0,0,1,.654-.328.825.825,0,0,1,.331.085.865.865,0,0,1,.274.214.9.9,0,0,1,.17.308.936.936,0,0,1,.041.353,1.185,1.185,0,0,1-.289.821,1.093,1.093,0,0,1-.76.374,1.257,1.257,0,0,1-.61-.16l-.132.1-.088-.05a5.705,5.705,0,0,0,.061-.814V10.9c0-.3-.065-.307-.232-.357v-.074a2.687,2.687,0,0,0,.452-.2.424.424,0,0,1,.1-.051c.026,0,.034.028.034.064Zm-18.93,4.417h.034c.088,0,.177-.012.177-.142v-1.3c0-.13-.088-.142-.177-.142h-.034v-.075c.094,0,.237.01.353.01s.265-.01.374-.01v.072h-.033c-.088,0-.177.012-.177.142v1.3c0,.13.088.142.177.142h.034v.074c-.115,0-.259-.009-.377-.009s-.258.009-.353.009v-.074" transform="translate(333.06 3229.176)" fill-rule="evenodd"/>
      <path id="DINERS_CLUB-5" data-name="DINERS CLUB" d="M127.239,16.827v-.053h-.023c-.088,0-.187-.016-.187-.154v-1.3c0-.137.1-.153.187-.153h.023v-.051c-.11,0-.249.01-.365.01s-.251-.009-.343-.01v.053h.023c.088,0,.187.016.187.153v1.3c0,.137-.1.154-.187.154h-.023v.053c.088,0,.228-.01.341-.01s.254.009.366.01Zm.011.021c-.116,0-.259-.01-.377-.01s-.258.01-.353.01h-.011v-.092h.044c.088,0,.166-.01.166-.131V15.317c0-.121-.079-.13-.166-.131h-.044v-.092h.011c.094,0,.237.009.353.009s.265-.009.374-.009h.011v.092h-.044c-.088,0-.166.01-.167.131v1.3c0,.121.079.13.167.131h.044v.092Zm1.641-.5,0-.006v-.933a.208.208,0,0,0-.007-.09.215.215,0,0,0-.043-.078.2.2,0,0,0-.072-.051.189.189,0,0,0-.086-.014h-.052V15.1c.112,0,.222.01.335.01s.2-.01.293-.01v.075h-.035c-.1,0-.213.019-.213.315v1.133a1.834,1.834,0,0,0,.014.251h-.088l-1.231-1.428v1.025c0,.217.041.291.224.291h.041v.074c-.1,0-.206-.009-.308-.009s-.217.009-.325.009v-.074h.034c.165,0,.215-.116.215-.315V15.4a.222.222,0,0,0-.017-.086.216.216,0,0,0-.117-.121.209.209,0,0,0-.083-.016h-.031V15.1c.088,0,.184.01.274.01.071,0,.141-.01.213-.01l1.059,1.247" transform="translate(333.062 3228.783)" fill-rule="evenodd"/>
      <path id="DINERS_CLUB-6" data-name="DINERS CLUB" d="M129,16.339l.008-.007Zm.048.517h.079a1.674,1.674,0,0,1-.012-.24V15.485c0-.3.12-.326.222-.326h.026v-.053c-.094,0-.189.01-.283.01-.109,0-.216-.009-.324-.01v.053h.041a.2.2,0,0,1,.089.015.214.214,0,0,1,.075.054.231.231,0,0,1,.046.081.241.241,0,0,1,.008.094v.94l-.005,0-.008.008-1.059-1.25c-.071,0-.14.01-.213.01-.088,0-.177-.009-.265-.01v.053h.021a.214.214,0,0,1,.086.017.22.22,0,0,1,.074.051.235.235,0,0,1,.049.076.244.244,0,0,1,.018.09v1.048c0,.2-.053.326-.225.327h-.025v.054c.1,0,.209-.01.314-.01s.2.009.3.01V16.77h-.03c-.188,0-.235-.085-.235-.3V15.414Zm.088.022h-.1l-1.212-1.408v1c0,.217.034.276.214.28h.051v.092h-.01c-.1,0-.206-.01-.308-.01s-.216.01-.325.01h-.011v-.092h.044c.158,0,.2-.107.2-.305V15.394a.219.219,0,0,0-.016-.082.214.214,0,0,0-.045-.07.209.209,0,0,0-.067-.046.2.2,0,0,0-.079-.015h-.041v-.092h.011c.088,0,.184.009.274.009.071,0,.14-.009.221-.006l1.049,1.23V15.4c0-.2-.128-.222-.2-.223h-.064v-.092h.011c.112,0,.222.009.335.009.1,0,.2-.009.293-.009h.011v.092h-.046c-.1,0-.2.012-.2.305v1.133a1.677,1.677,0,0,0,.014.249v.013Zm.591-1.66c-.177,0-.185.045-.222.226h-.071c.01-.07.021-.139.029-.211a1.541,1.541,0,0,0,.014-.211h.057c.019.074.079.072.143.072h1.236c.064,0,.124,0,.129-.077l.057.01c-.009.066-.019.134-.026.2a1.916,1.916,0,0,0-.005.2l-.072.028c0-.092-.017-.239-.177-.239h-.392v1.323c0,.192.088.214.2.214h.045v.074c-.093,0-.265-.009-.389-.009-.143,0-.311.009-.4.009v-.074h.045c.132,0,.2-.012.2-.208V15.218h-.392" transform="translate(332.953 3228.789)" fill-rule="evenodd"/>
      <path id="DINERS_CLUB-7" data-name="DINERS CLUB" d="M130.935,16.84c-.094,0-.265-.01-.389-.01-.143,0-.31.01-.4.01h-.012v-.1h.056c.131,0,.184-.006.188-.2V15.228h-.381v-.021h.4v1.339c0,.2-.077.22-.208.22h-.035v.052c.094,0,.255-.01.394-.01s.284.009.379.01v-.052h-.034c-.116,0-.209-.029-.209-.225V15.207h.4c.161,0,.181.142.186.234l.052-.02v-.195a1.4,1.4,0,0,1,.025-.191l-.036-.006c-.011.072-.079.076-.139.075h-1.244c-.056,0-.117,0-.139-.072h-.04a1.41,1.41,0,0,1-.014.2c-.007.068-.018.134-.026.2h.051c.032-.173.052-.23.229-.226v.021c-.177,0-.177.034-.212.218v.006h-.088v-.013c.01-.07.022-.139.029-.211a1.511,1.511,0,0,0,.014-.21v-.011h.076v.008c.017.063.06.063.121.064h1.244c.066,0,.115,0,.119-.067V15h.011l.067.011v.011c-.01.067-.019.134-.026.2a1.894,1.894,0,0,0-.005.2v.007h-.007l-.088.032v-.011c-.006-.092-.016-.229-.167-.229h-.381v1.313c0,.184.074.2.188.2h.056v.092h-.01Zm.5-.093h.034c.088,0,.177-.012.177-.142v-1.3c0-.13-.088-.142-.177-.142h-.034v-.075c.145,0,.395.01.595.01s.449-.01.611-.01c0,.108,0,.276.005.381l-.072.02c-.011-.162-.04-.291-.291-.291h-.331v.651h.283c.144,0,.177-.084.189-.218h.071q-.013.287,0,.575l-.071.015c-.014-.149-.021-.246-.186-.246h-.286v.579c0,.162.138.162.29.162.287,0,.413-.02.485-.3l.067.017c-.031.132-.059.263-.081.4-.153,0-.427-.009-.643-.009s-.5.009-.635.009v-.074" transform="translate(332.689 3228.79)" fill-rule="evenodd"/>
      <path id="DINERS_CLUB-8" data-name="DINERS CLUB" d="M132.939,16.826c.02-.125.048-.252.078-.377l-.048-.012c-.072.276-.21.3-.492.3-.151,0-.3,0-.3-.173v-.59h.3c.167,0,.184.1.2.245l.052-.011c0-.092-.007-.184-.007-.276s0-.184.007-.28h-.052c-.013.131-.052.221-.2.219h-.295V15.2h.342c.248,0,.289.132.3.289l.052-.015c-.006-.123-.008-.243,0-.361-.162,0-.4.01-.6.01s-.441-.009-.584-.01v.053h.022c.088,0,.187.016.187.153v1.3c0,.137-.1.153-.187.154h-.023v.052c.139,0,.415-.01.625-.01S132.784,16.826,132.939,16.826Zm.009.021c-.154,0-.428-.01-.643-.01s-.5.01-.635.01h-.011v-.092h.044c.088,0,.165-.01.166-.131V15.317c0-.121-.079-.13-.166-.131h-.044v-.092h.011c.146,0,.395.009.595.009s.448-.009.611-.009h.011v.14c0,.085,0,.184.007.25v.009h-.008l-.084.023V15.5c-.014-.161-.034-.276-.281-.28H132.2v.626h.274c.138,0,.162-.074.177-.209v-.01h.088v.011a5.2,5.2,0,0,0,0,.575v.008h-.009l-.083.017v-.012c-.017-.152-.018-.234-.177-.237h-.276v.569c0,.152.125.151.281.152.288,0,.4-.017.475-.3v-.01h.011l.077.021v.01c-.032.131-.059.262-.081.394v.009Zm.706-.906h.116c.239,0,.367-.092.367-.388a.342.342,0,0,0-.02-.143.328.328,0,0,0-.075-.121.318.318,0,0,0-.116-.078.312.312,0,0,0-.137-.021,1.213,1.213,0,0,0-.136.01Zm-.305-.577c0-.184-.1-.188-.169-.188h-.043V15.1c.077,0,.224.01.371.01s.258-.01.385-.01c.3,0,.567.085.567.439a.484.484,0,0,1-.1.276.45.45,0,0,1-.235.162l.409.635a.267.267,0,0,0,.1.108.257.257,0,0,0,.135.041v.074c-.079,0-.155-.009-.234-.009s-.151.009-.224.009a6.907,6.907,0,0,1-.5-.806h-.157v.532c0,.192.088.2.2.2h.043v.074c-.137,0-.275-.009-.411-.009-.115,0-.227.009-.347.009V16.76h.043c.088,0,.169-.041.169-.134Z" transform="translate(332.457 3228.783)" fill-rule="evenodd"/>
      <path id="DINERS_CLUB-9" data-name="DINERS CLUB" d="M133.969,15.931c.237,0,.353-.092.357-.377a.342.342,0,0,0-.092-.257.324.324,0,0,0-.114-.076.306.306,0,0,0-.133-.02.862.862,0,0,0-.125.009v.721Zm-.117.021h-.011v-.761h.009a1.049,1.049,0,0,1,.138-.009.326.326,0,0,1,.141.022.34.34,0,0,1,.12.081.355.355,0,0,1,.1.272c0,.3-.138.4-.378.4Zm0,.068h.163v.006a7.7,7.7,0,0,0,.488.8c.073,0,.15-.01.224-.01s.15.008.224.01v-.058a.262.262,0,0,1-.134-.044.276.276,0,0,1-.1-.108l-.416-.644.012,0a.439.439,0,0,0,.23-.158.471.471,0,0,0,.1-.27c0-.345-.258-.425-.558-.427-.126,0-.241.01-.385.01s-.282-.009-.36-.01v.053h.033c.074,0,.177.013.177.2V16.63c0,.1-.088.145-.177.145h-.033v.052c.115,0,.223-.01.335-.01.134,0,.265.009.4.01v-.052h-.033c-.109,0-.206-.014-.206-.211v-.543Zm1.113.827c-.08,0-.156-.01-.235-.01s-.149.01-.232.006a7.14,7.14,0,0,1-.494-.8h-.141v.521c0,.184.075.184.185.188h.054v.092h-.011c-.137,0-.275-.01-.411-.01-.114,0-.226.01-.346.01h-.009v-.092h.053c.088,0,.158-.04.159-.124V15.364c0-.177-.088-.176-.159-.178h-.053v-.092h.01c.078,0,.225.009.371.009s.258-.009.385-.009c.3,0,.578.087.579.448a.491.491,0,0,1-.094.277.454.454,0,0,1-.232.166l.4.626a.262.262,0,0,0,.093.105.249.249,0,0,0,.132.04h.009v.092h-.011Zm1.621-.5,0-.006v-.932a.207.207,0,0,0-.007-.09.215.215,0,0,0-.043-.078.2.2,0,0,0-.072-.051.191.191,0,0,0-.086-.014h-.053V15.1c.113,0,.222.01.335.01.1,0,.2-.01.294-.01v.075h-.035c-.1,0-.213.019-.213.315v1.133a1.7,1.7,0,0,0,.014.251h-.088l-1.229-1.428v1.025c0,.217.041.291.224.291h.041v.074c-.1,0-.206-.009-.308-.009s-.217.009-.325.009v-.074h.033c.165,0,.215-.116.215-.315V15.4a.223.223,0,0,0-.017-.086.216.216,0,0,0-.047-.073.214.214,0,0,0-.071-.048.209.209,0,0,0-.083-.016h-.033V15.1c.088,0,.184.01.274.01.071,0,.14-.01.213-.01l1.059,1.247" transform="translate(332.261 3228.783)" fill-rule="evenodd"/>
      <path id="DINERS_CLUB-10" data-name="DINERS CLUB" d="M136.812,16.342l.008-.007Zm.049.517h.079a1.817,1.817,0,0,1-.012-.24V15.486c0-.3.121-.326.223-.326h.025v-.053c-.094,0-.189.01-.283.01-.109,0-.216-.009-.324-.01v.053h.039a.2.2,0,0,1,.089.016.215.215,0,0,1,.075.054.218.218,0,0,1,.045.081.225.225,0,0,1,.009.094v.945l-.008.008-1.059-1.251c-.071,0-.14.01-.213.01-.088,0-.177-.009-.265-.01v.053h.021a.221.221,0,0,1,.087.017.226.226,0,0,1,.073.051.235.235,0,0,1,.049.076.243.243,0,0,1,.018.09v1.047c0,.2-.054.326-.225.327h-.023v.052c.1,0,.209-.01.314-.01s.2.009.3.01v-.052h-.03c-.188,0-.236-.086-.236-.3V15.414l1.241,1.445Zm.088.022h-.1l-1.212-1.408v1c0,.217.034.276.214.28h.05v.092h-.011c-.1,0-.206-.01-.308-.01s-.217.01-.325.01h-.011V16.75h.044c.158,0,.2-.107.2-.305V15.394a.218.218,0,0,0-.016-.082.215.215,0,0,0-.045-.069.2.2,0,0,0-.146-.062h-.042v-.092h.011c.088,0,.184.009.274.009.071,0,.139-.009.22-.006l1.05,1.231V15.4c0-.2-.128-.222-.2-.223h-.064v-.092h.011c.113,0,.223.009.335.009s.2-.009.294-.009h.011v.092h-.046c-.1,0-.2.012-.2.305v1.133a1.679,1.679,0,0,0,.014.249v.013Zm.971-1.506h0l-.222.7h.447Zm-.349,1.1a1.044,1.044,0,0,0-.053.194c0,.075.1.087.176.087h.026v.074c-.1,0-.194-.009-.289-.009a2.325,2.325,0,0,0-.258.009V16.76h.014a.21.21,0,0,0,.13-.045.228.228,0,0,0,.078-.117l.382-1.141a2.191,2.191,0,0,0,.088-.309,1.193,1.193,0,0,0,.217-.107.046.046,0,0,1,.024-.007h.01a.018.018,0,0,1,.007.006c.007.019.014.042.022.063l.441,1.3c.028.086.057.184.088.254a.157.157,0,0,0,.063.077.15.15,0,0,0,.1.021h.014v.074c-.109-.006-.219-.009-.329-.009s-.237,0-.358.009v-.074h.026c.055,0,.147-.009.147-.072a.777.777,0,0,0-.049-.184l-.093-.289h-.543Z" transform="translate(332.036 3228.788)" fill-rule="evenodd"/>
      <path id="DINERS_CLUB-11" data-name="DINERS CLUB" d="M138.162,15.375h0Zm-.2.69h.417l-.207-.667Zm-.029.022.229-.725h.011v0h.007l.227.725Zm.488.731c.117,0,.234-.009.348-.009s.214,0,.319.009v-.051a.155.155,0,0,1-.1-.024.166.166,0,0,1-.067-.082c-.031-.075-.06-.167-.088-.255l-.441-1.3-.02-.06h-.014a.88.88,0,0,1-.213.1,2.094,2.094,0,0,1-.088.311l-.381,1.142a.235.235,0,0,1-.082.122.221.221,0,0,1-.135.047h0v.051c.082,0,.164-.009.247-.009s.187,0,.278.009v-.051h-.029c-.079,0-.187-.01-.19-.1a.945.945,0,0,1,.053-.2h0l.079-.266h.557l.1.3a.777.777,0,0,1,.049.184c0,.076-.1.082-.158.083h-.016v.051Zm.676.022c-.107,0-.214-.01-.328-.01s-.236.006-.358.01H138.4v-.1h.038c.055,0,.137-.013.137-.061a.8.8,0,0,0-.047-.176l-.088-.281h-.53l-.074.251a1.024,1.024,0,0,0-.053.191c0,.061.088.075.169.075h.036v.1h-.011c-.1,0-.193-.01-.289-.01s-.172.006-.258.01h-.011v-.1h.024a.2.2,0,0,0,.123-.042.21.21,0,0,0,.074-.111l.383-1.142a2.984,2.984,0,0,0,.094-.315,1.279,1.279,0,0,0,.217-.108.056.056,0,0,1,.023-.006.026.026,0,0,1,.015,0,.026.026,0,0,1,.011.011l.022.063.441,1.3c.028.087.056.179.088.252a.143.143,0,0,0,.059.073.133.133,0,0,0,.089.019h.025v.1Zm.106-1.623c-.177,0-.186.045-.222.226h-.072c.01-.07.022-.139.029-.211a1.538,1.538,0,0,0,.014-.211h.057c.019.074.079.072.143.072h1.236c.064,0,.124,0,.129-.077l.057.01q-.015.1-.026.2c-.005.067-.005.134-.005.2l-.071.028c0-.092-.017-.239-.177-.239H139.9V16.54c0,.192.084.214.2.214h.045v.074c-.093,0-.259-.009-.389-.009s-.311.009-.4.009v-.074h.046c.132,0,.2-.012.2-.208V15.218H139.2" transform="translate(331.781 3228.789)" fill-rule="evenodd"/>
      <path id="DINERS_CLUB-12" data-name="DINERS CLUB" d="M140.339,16.84c-.094,0-.26-.01-.389-.01s-.31.01-.4.01h-.01v-.1h.056c.132,0,.184-.006.188-.2V15.228h-.38v-.021h.4v1.339c0,.2-.077.219-.208.22h-.035v.053c.094,0,.255-.01.394-.01s.284.009.379.01v-.053h-.035c-.115,0-.207-.029-.208-.225V15.207h.4c.161,0,.181.142.186.234l.052-.02c0-.064,0-.13.005-.195s.016-.128.024-.191l-.035-.006c-.011.072-.079.076-.139.075h-1.244c-.056,0-.117,0-.139-.073h-.039a1.568,1.568,0,0,1-.015.2c-.006.069-.019.134-.027.2h.051c.031-.173.052-.23.23-.226v.021c-.177,0-.177.034-.212.218v.008H139.1v-.013c.01-.07.022-.139.029-.211a1.527,1.527,0,0,0,.014-.211V15.01h.075v.008c.017.063.061.063.122.064h1.244c.066,0,.115,0,.118-.067V15h.011l.068.011v.011c-.011.067-.019.134-.026.2a1.69,1.69,0,0,0,0,.2v.007h-.007l-.088.032v-.013c-.006-.092-.016-.229-.167-.229h-.381v1.313c0,.184.074.2.187.2h.056v.092h-.011Zm.515-.093h.034c.088,0,.177-.012.177-.142v-1.3c0-.13-.088-.142-.177-.142h-.034v-.075c.094,0,.237.01.353.01s.265-.01.375-.01v.075h-.034c-.088,0-.177.012-.177.142v1.3c0,.13.088.142.177.142h.034v.078c-.115,0-.258-.009-.378-.009s-.258.009-.353.009v-.074" transform="translate(331.584 3228.79)" fill-rule="evenodd"/>
      <path id="DINERS_CLUB-13" data-name="DINERS CLUB" d="M141.8,16.823v-.052h-.022c-.088,0-.187-.016-.187-.154v-1.3c0-.137.1-.153.187-.153h.022V15.1c-.11,0-.248.01-.365.01s-.251-.009-.342-.01v.053h.023c.088,0,.187.016.187.153v1.3c0,.137-.1.154-.187.154H141.1v.052c.088,0,.227-.01.341-.01S141.692,16.822,141.8,16.823Zm.011.021c-.116,0-.259-.01-.378-.01s-.258.01-.353.01h-.01v-.092h.043c.088,0,.165-.01.166-.131V15.314c0-.121-.079-.13-.166-.131h-.043v-.092h.01c.094,0,.237.009.353.009s.265-.009.375-.009h.01v.092h-.043c-.088,0-.166.01-.167.131v1.3c0,.121.079.13.167.131h.043v.092Zm.988-.083c.464,0,.544-.426.544-.788s-.188-.8-.584-.8c-.417,0-.542.388-.542.721,0,.446.2.869.585.869Zm-.036-1.7a.808.808,0,0,1,.342.041.829.829,0,0,1,.3.18.864.864,0,0,1,.2.289.912.912,0,0,1,.074.349.95.95,0,0,1-.057.368.917.917,0,0,1-.194.313.873.873,0,0,1-.3.206.846.846,0,0,1-.353.064.812.812,0,0,1-.342-.052.841.841,0,0,1-.292-.19.874.874,0,0,1-.2-.3.91.91,0,0,1-.064-.353.932.932,0,0,1,.064-.354.9.9,0,0,1,.191-.3.859.859,0,0,1,.289-.2.835.835,0,0,1,.34-.066Z" transform="translate(331.352 3228.786)" fill-rule="evenodd"/>
      <path id="DINERS_CLUB-14" data-name="DINERS CLUB" d="M142.317,15.89c0-.335.127-.735.553-.735.406,0,.595.45.595.815s-.082.8-.554.8v-.02c.455,0,.53-.415.534-.778s-.187-.792-.575-.793c-.41,0-.53.379-.53.71,0,.443.2.86.572.861v.02c-.4,0-.592-.433-.593-.881Zm-.335.087a.964.964,0,0,1,.065-.357.921.921,0,0,1,.193-.3.881.881,0,0,1,.29-.2.851.851,0,0,1,.342-.068v.022a.831.831,0,0,0-.335.065.86.86,0,0,0-.284.2.9.9,0,0,0-.189.3.924.924,0,0,0-.063.349.9.9,0,0,0,.064.349.883.883,0,0,0,.192.293.832.832,0,0,0,.289.188.8.8,0,0,0,.337.052.833.833,0,0,0,.349-.064.863.863,0,0,0,.3-.2.9.9,0,0,0,.192-.31.93.93,0,0,0,.057-.364.89.89,0,0,0-.074-.345.872.872,0,0,0-.2-.285.827.827,0,0,0-.294-.177.8.8,0,0,0-.337-.04v-.023a.819.819,0,0,1,.345.042.841.841,0,0,1,.3.182.867.867,0,0,1,.2.292.914.914,0,0,1,.076.353.953.953,0,0,1-.059.372.92.92,0,0,1-.2.317.886.886,0,0,1-.3.209.859.859,0,0,1-.357.066.823.823,0,0,1-.344-.055.852.852,0,0,1-.3-.193.916.916,0,0,1-.2-.3A.926.926,0,0,1,141.983,15.977Zm3.416.368,0-.006v-.934a.208.208,0,0,0-.007-.09.214.214,0,0,0-.043-.078.2.2,0,0,0-.072-.051.189.189,0,0,0-.086-.014h-.051V15.1c.111,0,.222.01.334.01s.2-.01.294-.01v.075h-.035c-.1,0-.213.019-.213.315V16.62a1.837,1.837,0,0,0,.014.251h-.088l-1.229-1.428v1.025c0,.217.041.291.224.291h.041v.074c-.1,0-.2-.009-.308-.009s-.217.009-.326.009v-.074h.034c.165,0,.214-.116.214-.315V15.4a.222.222,0,0,0-.017-.086.215.215,0,0,0-.047-.073.212.212,0,0,0-.071-.048.207.207,0,0,0-.083-.016h-.031V15.1c.088,0,.184.01.274.01.071,0,.14-.01.213-.01l1.059,1.247" transform="translate(331.245 3228.787)" fill-rule="evenodd"/>
      <path id="DINERS_CLUB-15" data-name="DINERS CLUB" d="M145.645,16.342l.008-.007Zm.048.517h.079a1.682,1.682,0,0,1-.012-.24V15.487c0-.3.121-.326.223-.326h.026v-.053c-.094,0-.189.01-.285.01s-.214-.009-.323-.01v.053h.041a.206.206,0,0,1,.164.069.208.208,0,0,1,.046.082.226.226,0,0,1,.009.094v.945l-.008.008-1.059-1.251c-.071,0-.14.01-.213.01-.088,0-.177-.009-.265-.01v.053h.02a.221.221,0,0,1,.087.017.226.226,0,0,1,.073.051.235.235,0,0,1,.049.076.244.244,0,0,1,.018.09v1.048c0,.2-.053.326-.225.327h-.023v.052c.1,0,.21-.01.315-.01s.2.009.3.01V16.77H144.7c-.187,0-.234-.086-.234-.3V15.414Zm.088.022h-.1l-1.212-1.408v1c0,.217.034.276.214.276h.052v.1h-.011c-.1,0-.206-.01-.308-.01s-.217.01-.326.01h-.01v-.1h.043c.157,0,.2-.106.2-.3V15.395a.219.219,0,0,0-.016-.082.2.2,0,0,0-.045-.07.209.209,0,0,0-.067-.046.2.2,0,0,0-.079-.015h-.041v-.092h.01c.088,0,.184.009.274.009.071,0,.139-.009.221-.006l1.049,1.23V15.4c0-.2-.127-.222-.2-.223h-.063v-.092h.011c.112,0,.223.009.333.009s.2-.009.295-.009h.011v.092h-.046c-.1,0-.2.012-.2.305v1.133a1.957,1.957,0,0,0,.013.249v.013h-.007Zm.971-1.506h0l-.222.7h.447Zm-.353,1.1a1.128,1.128,0,0,0-.052.194c0,.075.1.087.177.087h.026v.074q-.144-.008-.289-.009a2.349,2.349,0,0,0-.258.009V16.76h.013a.209.209,0,0,0,.13-.045.224.224,0,0,0,.079-.117l.383-1.141a2.193,2.193,0,0,0,.088-.309,1.192,1.192,0,0,0,.217-.107.051.051,0,0,1,.019,0h.01a.018.018,0,0,1,.007.006c.007.019.014.042.022.063l.441,1.3c.028.086.057.184.088.254a.157.157,0,0,0,.063.077.149.149,0,0,0,.1.021h.014v.074c-.109-.006-.219-.009-.329-.009s-.237,0-.358.009V16.76h.026c.055,0,.148-.009.148-.072a.825.825,0,0,0-.049-.184l-.093-.289h-.537Z" transform="translate(330.999 3228.787)" fill-rule="evenodd"/>
      <path id="DINERS_CLUB-16" data-name="DINERS CLUB" d="M146.792,16.067h.417L147,15.4Zm-.029.021.229-.725H147v0h.008l.226.725Zm.488.735c.117,0,.234-.009.348-.009s.214,0,.319.009v-.051a.157.157,0,0,1-.1-.024.17.17,0,0,1-.067-.082c-.032-.075-.06-.167-.088-.255l-.441-1.3-.02-.059h-.014a.866.866,0,0,1-.213.1,2.218,2.218,0,0,1-.088.311L146.5,16.6a.236.236,0,0,1-.082.122.219.219,0,0,1-.136.047h0v.051c.083,0,.165-.009.248-.009s.186,0,.279.009v-.051H146.8c-.078,0-.186-.01-.189-.1a1.073,1.073,0,0,1,.053-.2h0l.079-.266h.557l.1.3a.775.775,0,0,1,.049.184c0,.076-.1.082-.158.083h-.026v.052Zm.677.022c-.108,0-.215-.01-.329-.01s-.237.006-.358.01h-.011v-.1h.036c.056,0,.138-.014.139-.062a.8.8,0,0,0-.049-.176l-.088-.281h-.53l-.073.251a1.093,1.093,0,0,0-.052.191c0,.062.088.077.169.077h.036v.1h-.011c-.1,0-.193-.01-.289-.01s-.171.006-.258.01h-.011v-.1h.024a.2.2,0,0,0,.124-.043.212.212,0,0,0,.075-.112l.382-1.142a3.007,3.007,0,0,0,.094-.315,1.215,1.215,0,0,0,.217-.108.056.056,0,0,1,.023-.006.025.025,0,0,1,.015,0,.026.026,0,0,1,.011.011c.007.019.014.042.021.062l.441,1.3c.028.087.057.179.088.253a.143.143,0,0,0,.059.072.135.135,0,0,0,.088.02h.025v.1h-.011Zm.6-.255c0,.1.066.13.143.14a1.665,1.665,0,0,0,.316,0,.325.325,0,0,0,.127-.043.335.335,0,0,0,.1-.091.6.6,0,0,0,.074-.184h.069c-.026.142-.06.281-.088.423-.21,0-.42-.009-.63-.009s-.421.009-.631.009v-.074h.033c.088,0,.176-.012.176-.166V15.31c0-.13-.094-.142-.176-.142h-.033v-.075c.126,0,.251.01.378.01s.241-.01.364-.01v.075h-.06c-.088,0-.162,0-.162.134V16.59" transform="translate(330.744 3228.788)" fill-rule="evenodd"/>
      <path id="DINERS_CLUB-17" data-name="DINERS CLUB" d="M149.5,16.826c.027-.135.059-.268.088-.4h-.049a.569.569,0,0,1-.074.176.364.364,0,0,1-.105.094.345.345,0,0,1-.132.045,1.58,1.58,0,0,1-.183.01q-.067,0-.135,0c-.077-.009-.153-.043-.152-.15V15.307c0-.139.084-.145.177-.145h.049v-.049c-.117,0-.234.01-.353.01s-.245-.009-.367-.01v.053h.023c.088,0,.19.016.19.153V16.6c0,.161-.1.178-.19.178h-.023v.052c.206,0,.413-.01.618-.01S149.291,16.826,149.5,16.826Zm.008.021c-.21,0-.42-.01-.63-.01s-.421.01-.631.01h-.01v-.092h.043c.088,0,.169-.008.169-.156V15.317c0-.12-.082-.13-.169-.131h-.043v-.092h.01c.127,0,.252.009.378.009s.241-.009.364-.009H149v.092h-.07c-.088,0-.15,0-.153.124V16.6c0,.092.059.118.134.129a1.691,1.691,0,0,0,.313,0,.332.332,0,0,0,.222-.13.567.567,0,0,0,.071-.176v-.008h.088v.014c-.026.142-.059.281-.088.423v.008h-.009Z" transform="translate(330.511 3228.783)" fill-rule="evenodd"/>
      <path id="DINERS_CLUB-18" data-name="DINERS CLUB" d="M149.668,15.287h.029c.033,0,.048-.026.048-.066a.045.045,0,0,0,0-.022.044.044,0,0,0-.027-.031.043.043,0,0,0-.02,0h-.027Zm-.088.138v-.013c.031,0,.037,0,.037-.023v-.194c0-.028,0-.037-.036-.035v-.014h.129c.044,0,.088.022.088.07a.085.085,0,0,1-.017.05.078.078,0,0,1-.042.029l.041.061a.273.273,0,0,0,.056.062v.008h-.049c-.023,0-.044-.051-.088-.12h-.027v.088c0,.017.005.017.036.02v.013Zm.125.074a.2.2,0,0,0,.115-.033.216.216,0,0,0,.079-.095.228.228,0,0,0,.013-.124.216.216,0,0,0-.055-.111.206.206,0,0,0-.105-.06.2.2,0,0,0-.119.011.207.207,0,0,0-.093.079.218.218,0,0,0-.034.119.213.213,0,0,0,.015.081.21.21,0,0,0,.043.069.2.2,0,0,0,.066.046.2.2,0,0,0,.078.017Zm0-.475a.244.244,0,0,1,.141.044.26.26,0,0,1,.094.118.274.274,0,0,1,.014.153.268.268,0,0,1-.069.136.25.25,0,0,1-.131.072.245.245,0,0,1-.147-.015.262.262,0,0,1-.114-.1.27.27,0,0,1-.041-.147.264.264,0,0,1,.019-.1.253.253,0,0,1,.056-.085.232.232,0,0,1,.083-.056.237.237,0,0,1,.1-.018Z" transform="translate(330.368 3228.788)" fill-rule="evenodd"/>
      <path id="DINERS_CLUB-19" data-name="DINERS CLUB" d="M121.172,13.4a2.6,2.6,0,0,0-.427-1.428,2.444,2.444,0,0,0-1.128-.926v4.708a2.444,2.444,0,0,0,1.128-.926,2.6,2.6,0,0,0,.427-1.428Zm-3.286,2.354V11.049a2.442,2.442,0,0,0-1.128.925,2.609,2.609,0,0,0,0,2.856,2.442,2.442,0,0,0,1.128.925Zm.868-6.332a3.715,3.715,0,0,0-2.124.669,3.946,3.946,0,0,0-1.408,1.785,4.123,4.123,0,0,0-.219,2.3,4.029,4.029,0,0,0,1.044,2.038A3.774,3.774,0,0,0,118,17.3a3.677,3.677,0,0,0,2.207-.226,3.855,3.855,0,0,0,1.715-1.465,4.1,4.1,0,0,0-.475-5.025,3.742,3.742,0,0,0-2.7-1.165Zm-.009,8.333a4.1,4.1,0,0,1-2.961-1.247,4.561,4.561,0,0,1-.957-4.754,4.3,4.3,0,0,1,.91-1.436,4.11,4.11,0,0,1,1.379-.948,3.972,3.972,0,0,1,1.626-.307h1.081a4.107,4.107,0,0,1,1.65.3,4.243,4.243,0,0,1,1.411.941,4.44,4.44,0,0,1,.953,1.435,4.591,4.591,0,0,1,.35,1.707,4.61,4.61,0,0,1-1.35,3.067,4.254,4.254,0,0,1-3.013,1.241Z" transform="translate(334.468 3229.269)" fill="#1e3e88" fill-rule="evenodd"/>
    </g>
    <g id="AURA" transform="translate(-12 1569)">
      <path id="AURA-2" data-name="AURA" d="M93.232,0H56.765A1.8,1.8,0,0,0,55,1.839V16.495a1.8,1.8,0,0,0,1.765,1.839H93.232A1.8,1.8,0,0,0,95,16.495V1.839A1.8,1.8,0,0,0,93.232,0Z" transform="translate(337 3222)" fill="#0068bc"/>
      <path id="AURA-3" data-name="AURA" d="M93.232,15.409H56.765A1.8,1.8,0,0,0,55,17.248V24.4a1.8,1.8,0,0,0,1.765,1.839H93.232A1.8,1.8,0,0,0,95,24.4V17.248A1.8,1.8,0,0,0,93.232,15.409Z" transform="translate(337 3220.757)" fill="#ffe301"/>
      <path id="AURA-4" data-name="AURA" d="M76.785,4.944a7.184,7.184,0,0,1,4.278,1.4,7.672,7.672,0,0,1,2.717,3.717,70.918,70.918,0,0,0-8.531-.5c-1.832,0-3.626.066-5.347.193a7.647,7.647,0,0,1,2.734-3.5,7.189,7.189,0,0,1,4.149-1.3Z" transform="translate(335.249 3221.601)" fill="#ffe302" fill-rule="evenodd"/>
      <path id="AURA-5" data-name="AURA" d="M55,23.857H95V16.219c-4.4-2.194-12.381-3.661-21.5-3.661A62.291,62.291,0,0,0,55,15.015v8.842Z" transform="translate(337 3220.987)" fill="#ffe303" fill-rule="evenodd"/>
      <path id="AURA-6" data-name="AURA" d="M73.5,9.961c-7.319,0-13.91,1.057-18.5,2.743v3.218c4.589-1.687,11.18-2.744,18.5-2.744,9.115,0,17.1,1.638,21.5,4.089V14.043c-4.405-2.451-12.386-4.087-21.5-4.087Z" transform="translate(337 3221.197)" fill="#f20000" fill-rule="evenodd"/>
      <path id="AURA-7" data-name="AURA" d="M66.377,20.827l2.648-3.068h1l2.8,3.068H71.793L71,19.9H68.1l-.75.93Zm1.984-1.26h2.348l-.719-.85c-.217-.258-.38-.473-.5-.644a2.69,2.69,0,0,1-.379.59Zm8.343,1.26V20.5a2.871,2.871,0,0,1-1.582.378A4.261,4.261,0,0,1,74.3,20.8a1.773,1.773,0,0,1-.565-.189.637.637,0,0,1-.258-.276.881.881,0,0,1-.055-.351V18.6h.846v1.234a1.017,1.017,0,0,0,.052.4.561.561,0,0,0,.336.233,2.121,2.121,0,0,0,.643.085,2.8,2.8,0,0,0,.707-.086.963.963,0,0,0,.467-.236.6.6,0,0,0,.114-.2.613.613,0,0,0,.028-.232V18.6h.843v2.224H76.7Zm2.077,0V18.6h.762v.341a1.628,1.628,0,0,1,.539-.312,1.819,1.819,0,0,1,.541-.075,3.319,3.319,0,0,1,.869.12l-.3.348a2.594,2.594,0,0,0-.619-.077,1.539,1.539,0,0,0-.495.074.615.615,0,0,0-.312.206.756.756,0,0,0-.143.439v1.162h-.846Zm6.471-.276a4.9,4.9,0,0,1-.907.252,5.483,5.483,0,0,1-.931.074,3.481,3.481,0,0,1-1.265-.178c-.295-.119-.441-.27-.441-.46a.405.405,0,0,1,.05-.169.39.39,0,0,1,.117-.129,1.269,1.269,0,0,1,.441-.216,3.77,3.77,0,0,1,.6-.123c.169-.019.419-.038.753-.057.682-.036,1.191-.079,1.517-.13v-.1a.343.343,0,0,0-.067-.205.32.32,0,0,0-.174-.119,2.806,2.806,0,0,0-.972-.127,3.055,3.055,0,0,0-.883.092.709.709,0,0,0-.422.331l-.826-.051a.863.863,0,0,1,.369-.382,2.363,2.363,0,0,1,.753-.224,7.218,7.218,0,0,1,1.134-.078,6.469,6.469,0,0,1,1.041.067,1.988,1.988,0,0,1,.588.168.606.606,0,0,1,.265.257.956.956,0,0,1,.04.347v.5a2.566,2.566,0,0,0,.053.664.706.706,0,0,0,.209.268h-.883a.615.615,0,0,1-.167-.276Zm-.064-.836a13.1,13.1,0,0,1-1.384.142,6.741,6.741,0,0,0-.743.075.876.876,0,0,0-.331.121.224.224,0,0,0-.081.074.235.235,0,0,0-.038.1c0,.1.088.184.253.249a2.2,2.2,0,0,0,.755.1,3.6,3.6,0,0,0,.867-.092,1.322,1.322,0,0,0,.562-.258.487.487,0,0,0,.109-.172.5.5,0,0,0,.029-.2v-.137Z" transform="translate(335.664 3220.568)" fill="#0068bb"/>
    </g>
    <g id="AMERICAN_EXPRESS" data-name="AMERICAN EXPRESS" transform="translate(0 1570)">
      <path id="AMERICAN_EXPRESS-2" data-name="AMERICAN EXPRESS" d="M38.235,0H1.765A1.8,1.8,0,0,0,0,1.839V23.161A1.8,1.8,0,0,0,1.765,25h36.47A1.8,1.8,0,0,0,40,23.161V1.839A1.8,1.8,0,0,0,38.235,0Z" transform="translate(335 3221.301)" fill="#2a6ff3"/>
      <path id="AMERICAN_EXPRESS-3" data-name="AMERICAN EXPRESS" d="M30.226,9.008l-.553,1.4h1.112Z" transform="translate(331.516 3220.574)" fill="#fff"/>
      <path id="AMERICAN_EXPRESS-4" data-name="AMERICAN EXPRESS" d="M8.57,9.008l-.547,1.4h1.1Z" transform="translate(334.058 3220.574)" fill="#fff"/>
      <path id="AMERICAN_EXPRESS-5" data-name="AMERICAN EXPRESS" d="M22.838,9.217a.8.8,0,0,0-.381-.063h-.992v.779h.979a.731.731,0,0,0,.4-.072.355.355,0,0,0,.128-.143.374.374,0,0,0,.038-.191.332.332,0,0,0-.04-.182.314.314,0,0,0-.13-.128Z" transform="translate(332.48 3220.563)" fill="#fff"/>
      <path id="AMERICAN_EXPRESS-6" data-name="AMERICAN EXPRESS" d="M26.747,15.782a.766.766,0,0,0-.384-.06h-.992v.788h.979a.757.757,0,0,0,.4-.072.374.374,0,0,0,.126-.146.392.392,0,0,0,.04-.192.35.35,0,0,0-.039-.185.332.332,0,0,0-.129-.134Z" transform="translate(332.021 3220.033)" fill="#fff"/>
      <path id="AMERICAN_EXPRESS-7" data-name="AMERICAN EXPRESS" d="M22.349,15.718H21.3v.894h1.04a.44.44,0,0,0,.5-.46C22.842,15.852,22.64,15.718,22.349,15.718Z" transform="translate(332.499 3220.033)" fill="#fff"/>
      <path id="AMERICAN_EXPRESS-8" data-name="AMERICAN EXPRESS" d="M36.244,16.13l-.018-.017a.572.572,0,0,0,.186-.21.6.6,0,0,0,.068-.277V14.88a.6.6,0,0,0-.042-.223.583.583,0,0,0-.121-.189.555.555,0,0,0-.181-.126.536.536,0,0,0-.214-.043H34.312a1.74,1.74,0,0,0-1.158.387.571.571,0,0,0-.2-.28.535.535,0,0,0-.319-.107H31.021a1.792,1.792,0,0,0-1.059.3.561.561,0,0,0-.2-.221.53.53,0,0,0-.282-.082H26.8a.536.536,0,0,0-.289.087.568.568,0,0,0-.2.232c-.038-.029-.066-.061-.107-.086a2.418,2.418,0,0,0-1.231-.234H23.106a.536.536,0,0,0-.29.088.568.568,0,0,0-.2.234,2.159,2.159,0,0,0-1.242-.322H18.8a.535.535,0,0,0-.223.047.555.555,0,0,0-.186.136l-.61.685-.585-.677a.548.548,0,0,0-.187-.144.527.527,0,0,0-.227-.05H13.545a.536.536,0,0,0-.213.044.555.555,0,0,0-.18.126.582.582,0,0,0-.12.188.6.6,0,0,0-.042.222v3.509a.6.6,0,0,0,.042.222.581.581,0,0,0,.12.188.556.556,0,0,0,.18.126.537.537,0,0,0,.213.044h3.19a.536.536,0,0,0,.222-.048.554.554,0,0,0,.185-.136l.618-.692.583.683a.556.556,0,0,0,.188.144.536.536,0,0,0,.228.05h1.565a.537.537,0,0,0,.213-.044.554.554,0,0,0,.181-.125.581.581,0,0,0,.121-.188.6.6,0,0,0,.043-.222v-.6h.447a2.28,2.28,0,0,0,1.224-.293v.893a.6.6,0,0,0,.043.222.581.581,0,0,0,.121.188.555.555,0,0,0,.181.125.537.537,0,0,0,.213.044h.808a.537.537,0,0,0,.213-.044.554.554,0,0,0,.181-.125.581.581,0,0,0,.121-.188.6.6,0,0,0,.043-.222v-.7h.3a1.3,1.3,0,0,1,.164.006v.7a.593.593,0,0,0,.164.409.546.546,0,0,0,.393.169h.8a.513.513,0,0,0,.246-.065.534.534,0,0,0,.245.065h2.687a.533.533,0,0,0,.242-.063.526.526,0,0,0,.242.063h1.568a2,2,0,0,0,1.21-.352.573.573,0,0,0,.2.256.538.538,0,0,0,.306.1h1.568a1.615,1.615,0,0,0,1.821-1.687,1.608,1.608,0,0,0-.086-.618,1.56,1.56,0,0,0-.313-.533ZM21.329,17.209H20.322v1.178H18.758l-.992-1.161-1.031,1.161h-3.19v-3.51h3.238l.992,1.151L18.8,14.877h2.573c.638,0,1.357.184,1.357,1.158s-.7,1.176-1.4,1.174Zm4.453-.451a.856.856,0,0,1,.393.3,1.05,1.05,0,0,1,.134.644v.7H25.5v-.439a1.07,1.07,0,0,0-.132-.688c-.116-.125-.295-.154-.59-.154h-.861v1.281H23.11V14.879h1.86a1.925,1.925,0,0,1,.971.165.805.805,0,0,1,.317.326.85.85,0,0,1,.1.453,1.017,1.017,0,0,1-.149.56.959.959,0,0,1-.426.375ZM29.488,15.6H27.6v.639h1.839v.717H27.6v.7h1.886v.728H26.8V14.879h2.687Zm2.054,2.78H29.969V17.63h1.561a.451.451,0,0,0,.328-.087.312.312,0,0,0,.07-.1.323.323,0,0,0,.024-.125.307.307,0,0,0-.024-.127.3.3,0,0,0-.074-.1A.411.411,0,0,0,31.568,17c-.752-.026-1.7.024-1.7-1.086a1.017,1.017,0,0,1,1.147-1.045h1.613v.747H31.156a.524.524,0,0,0-.323.064.292.292,0,0,0-.1.12.3.3,0,0,0-.024.154.3.3,0,0,0,.055.145.284.284,0,0,0,.119.1.9.9,0,0,0,.314.04l.432.013a1.269,1.269,0,0,1,.919.282.984.984,0,0,1,.2.345,1.011,1.011,0,0,1,.046.4c0,.759-.447,1.111-1.257,1.108Zm3.29,0H33.26V17.63h1.562a.449.449,0,0,0,.327-.087.312.312,0,0,0,.07-.1.323.323,0,0,0,.024-.125.307.307,0,0,0-.024-.127.3.3,0,0,0-.074-.1A.409.409,0,0,0,34.859,17c-.753-.026-1.7.024-1.7-1.086a1.017,1.017,0,0,1,1.147-1.045h1.613v.747H34.451a.524.524,0,0,0-.323.064.293.293,0,0,0-.1.12.305.305,0,0,0,.031.3.286.286,0,0,0,.118.1.9.9,0,0,0,.314.04l.432.013a1.272,1.272,0,0,1,.92.282.99.99,0,0,1,.2.345,1.019,1.019,0,0,1,.046.4c0,.759-.454,1.111-1.263,1.108Z" transform="translate(333.475 3220.148)" fill="#fff"/>
      <path id="AMERICAN_EXPRESS-9" data-name="AMERICAN EXPRESS" d="M32.865,7.729H32.04a.537.537,0,0,0-.213.044.556.556,0,0,0-.181.125.581.581,0,0,0-.121.188.6.6,0,0,0-.042.222V8.67L31.1,8.009a.569.569,0,0,0-.2-.2.541.541,0,0,0-.272-.073H29.4a.545.545,0,0,0-.393.17.592.592,0,0,0-.163.41v.493l-.3-.721a.574.574,0,0,0-.2-.255.54.54,0,0,0-.306-.1H26.829a.537.537,0,0,0-.332.115.538.538,0,0,0-.334-.115h-.778a2.147,2.147,0,0,0-1.512.493.579.579,0,0,0-.182-.351.537.537,0,0,0-.358-.142h-.823a.538.538,0,0,0-.292.089.57.57,0,0,0-.2.237,1.142,1.142,0,0,0-.1-.081,2.286,2.286,0,0,0-1.254-.245H18.81a.529.529,0,0,0-.28.092.522.522,0,0,0-.279-.092H15.565a.527.527,0,0,0-.3.1.53.53,0,0,0-.3-.1H13.622a.54.54,0,0,0-.307.1.574.574,0,0,0-.2.257l-.478,1.174-.53-1.2a.575.575,0,0,0-.206-.245.542.542,0,0,0-.3-.092H10.286a.545.545,0,0,0-.393.17.592.592,0,0,0-.163.41v.5l-.3-.735a.575.575,0,0,0-.206-.255.541.541,0,0,0-.306-.1h-1.2a.542.542,0,0,0-.306.1.576.576,0,0,0-.205.255L5.768,11.589a.6.6,0,0,0,.047.547.565.565,0,0,0,.2.191.538.538,0,0,0,.264.069h.876a.54.54,0,0,0,.308-.1.575.575,0,0,0,.2-.259l.17-.427H8.77l.168.424a.574.574,0,0,0,.2.261.54.54,0,0,0,.31.1H11.09a.545.545,0,0,0,.393-.17.592.592,0,0,0,.163-.41V11.8l.105.249a.574.574,0,0,0,.205.251.54.54,0,0,0,.3.094h.706a.539.539,0,0,0,.3-.094.573.573,0,0,0,.2-.252l.107-.248v.015a.6.6,0,0,0,.042.221.581.581,0,0,0,.121.188.553.553,0,0,0,.18.125.535.535,0,0,0,.213.044h.825a.535.535,0,0,0,.3-.1.531.531,0,0,0,.3.1h2.694a.521.521,0,0,0,.279-.092.526.526,0,0,0,.28.092h.806a.545.545,0,0,0,.393-.17.592.592,0,0,0,.163-.41v-.7h.464v.7a.593.593,0,0,0,.165.407.546.546,0,0,0,.392.168h.812a.526.526,0,0,0,.249-.07.53.53,0,0,0,.252.07h.823a.536.536,0,0,0,.348-.133.577.577,0,0,0,.187-.334,2.271,2.271,0,0,0,1.457.467h.943a.539.539,0,0,0,.31-.1.573.573,0,0,0,.2-.263l.164-.42h.93l.17.427a.575.575,0,0,0,.2.259.54.54,0,0,0,.309.1H30.2a.545.545,0,0,0,.393-.17.592.592,0,0,0,.163-.41v-.552l.494.853a.568.568,0,0,0,.2.2.539.539,0,0,0,.273.073h1.14a.545.545,0,0,0,.393-.17.592.592,0,0,0,.163-.41v-3.5a.593.593,0,0,0-.163-.41.546.546,0,0,0-.393-.17Zm-17.9,4.088h-.825V9.069l-1.171,2.748h-.706L11.09,9.066v2.751H9.451l-.31-.782H7.464l-.312.782H6.278L7.72,8.308h1.2l1.371,3.323V8.307H11.6l1.054,2.381.971-2.381h1.339Zm3.292-2.778H16.369v.633h1.84v.719h-1.84v.7h1.887v.726H15.564V8.307h2.692Zm3.225,1.15a.944.944,0,0,1,.4.3,1.039,1.039,0,0,1,.134.644v.689H21.2v-.443a1.092,1.092,0,0,0-.127-.683.776.776,0,0,0-.279-.136.759.759,0,0,0-.308-.014h-.863v1.276h-.807V8.308h1.853a1.826,1.826,0,0,1,.971.168.8.8,0,0,1,.314.326.847.847,0,0,1,.094.451,1.018,1.018,0,0,1-.148.559.96.96,0,0,1-.424.376Zm1.853,1.628h-.823V8.307h.823Zm9.532,0H31.724L30.2,9.183v2.634H28.558l-.314-.782H26.567l-.3.782h-.939a1.643,1.643,0,0,1-1.165-.388,1.779,1.779,0,0,1-.351-.622,1.829,1.829,0,0,1-.081-.717,1.959,1.959,0,0,1,.084-.732,1.908,1.908,0,0,1,.347-.642,1.615,1.615,0,0,1,.571-.335,1.57,1.57,0,0,1,.652-.074h.778v.752H25.4a.744.744,0,0,0-.331.033.767.767,0,0,0-.287.175,1.191,1.191,0,0,0-.231.8,1.248,1.248,0,0,0,.222.827.758.758,0,0,0,.561.184h.361l1.138-2.758h1.207l1.361,3.31V8.306h1.228l1.412,2.445V8.307h.824ZM25.678,9.639l-.353.849a.622.622,0,0,1-.158-.017.925.925,0,0,1-.064-.409.884.884,0,0,1,.064-.381c.023-.024.042-.044.231-.044Z" transform="translate(334.328 3220.678)" fill="#fff"/>
      <path id="AMERICAN_EXPRESS-10" data-name="AMERICAN EXPRESS" d="M18.989,16.723l1.236,1.431V15.34Z" transform="translate(332.771 3220.064)" fill="#fff"/>
      <path id="AMERICAN_EXPRESS-11" data-name="AMERICAN EXPRESS" d="M16.549,15.723H14.531v.637H16.3v.717H14.531v.7H16.51l.92-1.032Z" transform="translate(333.294 3220.033)" fill="#fff"/>
    </g>
  </g>
</svg>
