<svg xmlns="http://www.w3.org/2000/svg" width="24.51" height="23.25" viewBox="0 0 24.51 23.25">
  <g id="ÍCONE_CARRINHO" data-name="ÍCONE CARRINHO" transform="translate(-1495.75 -26.749)">
    <path id="ÍCONE_CARRINHO-2" data-name="ÍCONE CARRINHO" d="M69.1,73.9a2.541,2.541,0,1,0,2.5,2.541A2.534,2.534,0,0,0,69.1,73.9Zm0,3.542a1,1,0,1,1,.986-1A1.014,1.014,0,0,1,69.1,77.442Z" transform="translate(1445.891 -28.982)" fill="#34cb2e"/>
    <path id="ÍCONE_CARRINHO-3" data-name="ÍCONE CARRINHO" d="M34.7,73.9a2.541,2.541,0,1,0,2.5,2.541A2.534,2.534,0,0,0,34.7,73.9Zm0,3.542a1,1,0,1,1,.986-1A1.014,1.014,0,0,1,34.7,77.442Z" transform="translate(1471.441 -28.982)" fill="#34cb2e"/>
    <path id="ÍCONE_CARRINHO-4" data-name="ÍCONE CARRINHO" d="M25.974,9.931A2.435,2.435,0,0,0,24.079,9H8.691l-.48-1.863A2.427,2.427,0,0,0,5.861,5.3H3.283a.78.78,0,1,0,0,1.561H5.861a.834.834,0,0,1,.809.629L9.752,19.722A2.427,2.427,0,0,0,12.1,21.56H22.184a2.406,2.406,0,0,0,2.35-1.837l1.9-7.752A2.3,2.3,0,0,0,25.974,9.931Zm-1.087,1.686-1.9,7.752a.834.834,0,0,1-.809.629H12.1a.834.834,0,0,1-.809-.629l-2.2-8.784H24.079a.839.839,0,0,1,.657.327A.787.787,0,0,1,24.887,11.618Z" transform="translate(1493.5 21.699)" fill="#34cb2e" stroke="#34cb2e" stroke-width="0.5"/>
  </g>
</svg>
