<svg xmlns="http://www.w3.org/2000/svg" width="25" height="23" viewBox="0 0 25 23">
  <g id="ÍCONE_ATENDIMENTO" data-name="ÍCONE ATENDIMENTO" transform="translate(-1345.013 -26.001)">
    <path id="ÍCONE_ATENDIMENTO-2" data-name="ÍCONE ATENDIMENTO" d="M27.5,19.879a4.494,4.494,0,0,0-3.789-4.437v-.63a8.645,8.645,0,0,0-17.289,0v.6A4.509,4.509,0,0,0,7.026,24.4H8.184a1.677,1.677,0,0,0,1.684-1.68V17.07a1.7,1.7,0,0,0-1.5-1.68v-.578a6.684,6.684,0,0,1,13.368,0v.551a1.666,1.666,0,0,0-1.632,1.68v5.645a1.676,1.676,0,0,0,1.105,1.575,4.975,4.975,0,0,1-3.921,2.416,1.075,1.075,0,0,0-1.053-.84H13.868a1.083,1.083,0,0,0-1.079,1.076v1.208A1.083,1.083,0,0,0,13.868,29.2h2.368a1.05,1.05,0,0,0,1.053-.893,6.608,6.608,0,0,0,5.684-3.938A4.515,4.515,0,0,0,27.5,19.879ZM7.921,22.426H7.026a2.547,2.547,0,1,1,0-5.094h.895Zm15.053,0h-.895V17.332h.895a2.547,2.547,0,1,1,0,5.094Z" transform="translate(1342.513 19.801)" fill="#34cb2e"/>
  </g>
</svg>
