<svg xmlns="http://www.w3.org/2000/svg" width="20" height="23" viewBox="0 0 20 23">
  <g id="ÍCONE_LOGIN" data-name="ÍCONE LOGIN" transform="translate(-1215.51 -30.999)">
    <path id="ÍCONE_LOGIN-2" data-name="ÍCONE LOGIN" d="M38.239,17.32a5.421,5.421,0,0,1-5.489-5.347,5.5,5.5,0,0,1,11,0A5.43,5.43,0,0,1,38.239,17.32Zm.014-8.792a3.442,3.442,0,1,0,3.541,3.446,3.494,3.494,0,0,0-3.541-3.446Z" transform="translate(1187.418 24.359)" fill="#34cb2e"/>
    <path id="ÍCONE_LOGIN-3" data-name="ÍCONE LOGIN" d="M35.519,58.065l-18.036-.03a.962.962,0,0,1-.973-.951,9.86,9.86,0,0,1,10.015-9.7,9.86,9.86,0,0,1,9.985,9.73.934.934,0,0,1-.29.677.991.991,0,0,1-.7.273ZM18.512,56.142l15.978.024a8.081,8.081,0,0,0-15.981-.024Z" transform="translate(1199 -4.066)" fill="#34cb2e"/>
  </g>
</svg>
